<?xml version="1.0" encoding="UTF-8" standalone="no"?>
<svg
   xmlns:dc="http://purl.org/dc/elements/1.1/"
   xmlns:cc="http://creativecommons.org/ns#"
   xmlns:rdf="http://www.w3.org/1999/02/22-rdf-syntax-ns#"
   xmlns:svg="http://www.w3.org/2000/svg"
   xmlns="http://www.w3.org/2000/svg"
   viewBox="0 0 1000 180"
   height="180"
   width="1000"
   id="svg4485"
   version="1.1">
  <metadata
     id="metadata4491">
    <rdf:RDF>
      <cc:Work
         rdf:about="">
        <dc:format>image/svg+xml</dc:format>
        <dc:type
           rdf:resource="http://purl.org/dc/dcmitype/StillImage" />
        <dc:title></dc:title>
      </cc:Work>
    </rdf:RDF>
  </metadata>
  <defs
     id="defs4489" />
  <path
     id="path4513"
     d="m 165.77028,136.52478 c -5.18541,-1.49543 -11.43221,-8.30802 -13.76214,-15.0086 -2.85289,-8.20457 -2.64538,-21.659932 0.49049,-31.804207 1.90783,-6.171685 3.4839,-8.922159 7.46379,-13.025499 7.99365,-8.241583 18.41472,-9.829725 24.5093,-3.735137 3.32594,3.325932 3.58342,3.282313 3.58342,-0.607039 v -3.215926 h 6.43185 6.43186 v 26.560871 c 0,22.304697 0.2674,26.942637 1.66875,28.943337 2.1395,3.05457 6.19435,3.05782 9.0364,0.008 4.28612,-4.60067 5.37448,-11.53977 5.37448,-34.266548 V 69.128586 h 6.43185 6.43185 v 6.107055 6.107044 l 3.22041,-4.379062 c 5.63291,-7.659586 14.02548,-9.982161 18.80381,-5.203819 3.18699,3.186993 3.38453,7.335227 0.48727,10.232488 -2.55222,2.552223 -4.23043,2.688289 -7.03095,0.570087 -3.38004,-2.556544 -7.54405,-1.95643 -11.69132,1.68492 l -3.78922,3.326972 v 24.544389 24.54438 h -6.43185 -6.43185 v -4.24638 -4.2464 l -4.21097,4.51439 c -3.86091,4.13909 -4.65577,4.51438 -9.56142,4.51438 -5.96816,0 -9.66764,-2.51759 -12.01033,-8.17334 l -1.29967,-3.13769 -3.81334,4.45504 c -5.82832,6.80908 -11.83025,8.63392 -20.33247,6.18195 z m 16.70432,-12.51952 c 4.52494,-4.22694 5.56772,-9.23754 5.57457,-26.786254 0.005,-14.844834 -0.0763,-15.40672 -2.62524,-17.955589 -5.82671,-5.826711 -14.2321,-2.122575 -18.90642,8.33179 -2.17349,4.861141 -2.53118,7.378739 -2.55459,17.980333 -0.0227,10.2932 0.31248,12.88909 2.03118,15.72923 3.88074,6.41293 11.21908,7.61539 16.4805,2.70049 z m 90.95541,12.62734 c -4.21531,-1.26322 -7.06955,-4.02299 -9.39246,-9.08157 -1.7432,-3.79616 -1.9717,-7.39195 -1.99255,-31.355278 l -0.0236,-27.06738 h 6.37946 6.37945 l 0.32039,26.895682 c 0.3192,26.795026 0.32986,26.903336 2.8511,28.943336 3.67867,2.97651 7.80081,2.59367 11.29032,-1.04858 4.24688,-4.43279 4.88427,-8.7249 4.91297,-33.082935 l 0.0256,-21.707503 h 6.43185 6.43186 v 26.597254 c 0,25.284904 0.10785,26.713014 2.18571,28.943334 3.32509,3.56907 8.57959,3.13575 12.66663,-1.04459 5.46455,-5.58926 7.09931,-12.20199 7.11204,-28.768587 l 0.0111,-14.471669 -2.8801,0.335829 c -6.06896,0.707643 -9.57729,-7.173992 -5.15971,-11.591571 2.96657,-2.966563 6.05953,-2.681193 9.62918,0.888464 4.08391,4.083915 5.36892,9.402361 5.35388,22.159008 -0.0221,18.769606 -4.30889,32.715816 -12.32831,40.107856 -7.78356,7.17463 -17.46787,6.93201 -25.02688,-0.627 l -3.71956,-3.71956 -2.67685,3.42038 c -4.38646,5.60486 -11.24913,7.53233 -18.78156,5.27508 z m 86.81095,-0.47264 c -5.42909,-1.93519 -11.13182,-7.44031 -13.77928,-13.3018 -4.84613,-10.72938 -3.11884,-31.924875 3.44517,-42.275227 10.57851,-16.680591 34.09146,-14.47259 38.73286,3.637234 0.77851,3.037582 1.98305,5.740665 2.67676,6.006868 0.69369,0.266193 3.24139,-0.0492 5.66154,-0.700868 l 4.40025,-1.184865 v -9.606465 -9.606465 h 6.37837 6.37835 l 0.32149,6.09834 0.32149,6.098329 2.66152,-3.897253 c 3.06079,-4.481897 9.19905,-8.299416 13.3448,-8.299416 3.62565,0 8.11312,4.419969 8.11312,7.991094 0,2.875339 -3.35692,7.040253 -5.62787,6.982473 -0.73698,-0.01876 -2.27635,-0.742332 -3.42081,-1.607963 -3.35685,-2.538984 -7.65538,-1.901309 -11.81753,1.753109 l -3.78922,3.326972 v 24.544393 24.54437 h -6.43185 -6.43186 v -21.4395 c 0,-11.79173 -0.12059,-21.432191 -0.26799,-21.42324 -0.1474,0.0086 -2.43874,0.66366 -5.09188,1.454895 l -4.82389,1.438613 -0.70873,10.068852 c -0.38979,5.53787 -1.48463,12.20647 -2.43298,14.81912 -4.77337,13.15056 -15.71996,18.88852 -27.81183,14.5784 z m 15.7601,-10.32728 c 4.68319,-2.13381 7.53954,-8.99851 8.03226,-19.30397 l 0.44142,-9.232758 -3.33997,-1.164315 c -3.0143,-1.050793 -3.33997,-1.59764 -3.33997,-5.60835 0,-3.542483 0.43494,-4.557761 2.14396,-5.004679 2.88171,-0.753588 2.70156,-3.066364 -0.48727,-6.255191 -6.04119,-6.041203 -15.77653,-1.31943 -19.54272,9.478493 -2.7649,7.927119 -2.72464,25.44919 0.0714,31.07691 3.1543,6.34886 9.80578,8.84565 16.0209,6.01386 z m 79.01245,10.0245 c -2.0435,-1.03086 -4.69664,-3.56266 -5.89587,-5.62621 -2.07246,-3.56614 -2.19604,-5.77926 -2.49591,-44.697483 l -0.3155,-40.945582 4.06741,-0.655234 c 2.23707,-0.360377 5.15278,-0.877819 6.47935,-1.149876 l 2.41195,-0.494652 V 80.73972 c 0,41.06331 0.39331,44.72313 4.92861,45.86141 6.91509,1.73558 9.43229,-3.03777 9.62166,-18.24549 0.19829,-15.92204 2.85443,-24.422054 9.90217,-31.688226 7.97486,-8.222019 18.40275,-9.804276 24.49093,-3.716077 1.4349,1.434892 2.82816,2.608888 3.09616,2.608888 0.26799,0 0.48726,-6.972783 0.48726,-15.495062 V 44.570089 l 4.01991,-0.646326 c 2.21095,-0.355478 5.10529,-0.868911 6.43186,-1.140968 l 2.41194,-0.494652 v 39.980986 c 0,34.450941 0.23082,40.310511 1.66874,42.363451 1.99081,2.84227 6.03553,3.10086 8.58736,0.54902 4.38786,-4.38784 5.19629,-8.71509 5.6155,-30.057824 l 0.40533,-20.635527 h -2.77859 c -2.24917,0 -2.77859,-0.510614 -2.77859,-2.679938 0,-2.143951 0.53599,-2.679939 2.67994,-2.679939 2.64729,0 2.67994,-0.110435 2.67994,-9.063209 v -9.063222 l 4.01991,-0.646326 c 2.21095,-0.355477 5.10528,-0.868911 6.43185,-1.140967 2.367,-0.485434 2.41195,-0.304495 2.41195,9.709536 v 10.204188 h 4.82389 c 4.43082,0 4.82389,0.218372 4.82389,2.679939 0,2.461577 -0.39307,2.679938 -4.82389,2.679938 h -4.82389 v 23.880933 c 0,19.879138 0.27963,24.280158 1.66874,26.263398 2.30674,3.29333 7.30859,3.15038 10.76669,-0.30773 5.23534,-5.23534 5.78815,-8.35371 5.78815,-32.650562 V 69.128372 h 6.37836 6.37835 l 0.3215,6.09834 0.32148,6.098329 2.66152,-3.897253 c 3.06079,-4.481897 9.19905,-8.299416 13.3448,-8.299416 3.62566,0 8.11313,4.419969 8.11313,7.991094 0,2.875339 -3.35692,7.040253 -5.62787,6.982473 -0.73698,-0.01876 -2.27635,-0.742332 -3.42081,-1.607963 -3.35685,-2.538984 -7.65539,-1.901309 -11.81754,1.753109 l -3.78922,3.326972 v 24.544393 24.54437 h -6.43185 -6.43185 v -4.82697 -4.82698 l -3.82263,4.2312 c -4.39166,4.86105 -9.72737,7.00679 -14.97525,6.02229 -4.1464,-0.77788 -9.70229,-5.01833 -10.70201,-8.16815 -0.59382,-1.87094 -1.20416,-1.52585 -5.29716,2.99501 -4.34741,4.80187 -4.94926,5.10959 -9.99336,5.10959 -6.12796,0 -9.25098,-2.10085 -11.68877,-7.86308 l -1.51253,-3.57517 -4.26065,4.84035 c -4.97052,5.64681 -9.93228,7.6445 -16.52973,6.65516 -5.30253,-0.79516 -12.15681,-5.31808 -14.37094,-9.4829 l -1.49911,-2.8199 -3.07185,4.8438 c -4.73022,7.45878 -11.83813,9.71579 -19.08486,6.06011 z m 51.19767,-11.85192 c 4.52496,-4.22694 5.56773,-9.23754 5.57457,-26.786254 0.005,-14.844834 -0.0763,-15.40672 -2.62523,-17.955589 -5.82671,-5.826711 -14.2321,-2.122575 -18.90641,8.33179 -2.1735,4.861141 -2.53119,7.378739 -2.55459,17.980333 -0.0227,10.2932 0.31248,12.88909 2.03117,15.72923 3.88075,6.41293 11.21909,7.61539 16.48049,2.70049 z m 124.79646,12.51952 c -5.18542,-1.49543 -11.43222,-8.30802 -13.76214,-15.0086 -2.85291,-8.20457 -2.64539,-21.659932 0.49048,-31.804207 1.90784,-6.171685 3.4839,-8.922159 7.46379,-13.025499 7.99364,-8.241583 18.41473,-9.829725 24.5093,-3.735137 3.32593,3.325932 3.58342,3.282313 3.58342,-0.607039 v -3.215926 h 6.43186 6.43185 v 26.560871 c 0,22.304697 0.2674,26.942637 1.66874,28.943337 2.13952,3.05457 6.19436,3.05782 9.03641,0.008 4.28612,-4.60067 5.37448,-11.53977 5.37448,-34.266548 V 69.128586 h 6.43185 6.43186 v 26.118832 c 0,24.800552 0.11213,26.261402 2.22175,28.943332 4.7592,6.05034 12.72001,2.73289 17.07676,-7.11627 2.66058,-6.01468 4.43374,-20.778659 3.58817,-29.876547 -0.64403,-6.929507 -0.80739,-7.281961 -3.10758,-6.704649 -7.54184,1.892884 -11.03523,-10.644384 -3.62158,-12.997381 3.17543,-1.007839 7.79035,1.217421 9.88753,4.767654 4.62384,7.827533 4.41801,31.046353 -0.40205,45.354473 -4.22356,12.53746 -11.87233,20.0238 -20.52942,20.09344 -5.18567,0.0417 -11.60601,-3.29457 -14.78489,-7.68289 -2.56584,-3.54203 -3.11581,-3.87141 -3.65059,-2.18643 -0.34632,1.09112 -2.34124,3.64279 -4.43318,5.67036 -3.27482,3.17409 -4.52826,3.68652 -9.01749,3.68652 -5.82192,0 -9.55184,-2.56748 -11.87386,-8.17334 l -1.29967,-3.13769 -3.81334,4.45504 c -5.82832,6.80908 -11.83025,8.63392 -20.33246,6.18195 z m 16.7043,-12.51952 c 4.52496,-4.22694 5.56773,-9.23754 5.57457,-26.786254 0.005,-14.844834 -0.0763,-15.40672 -2.62523,-17.955589 -5.82672,-5.826711 -14.2321,-2.122575 -18.90641,8.33179 -2.1735,4.861141 -2.53119,7.378739 -2.5546,17.980333 -0.0227,10.2932 0.31248,12.88909 2.03118,15.72923 3.88075,6.41293 11.21908,7.61539 16.48049,2.70049 z m 103.13032,12.52962 c -6.02064,-1.80648 -10.76046,-6.14407 -13.79145,-12.62109 -2.45573,-5.24775 -2.80942,-7.37095 -2.78696,-16.73029 0.0401,-16.706008 4.85945,-28.660657 14.04504,-34.839202 5.09579,-3.427588 16.42007,-3.827381 21.12327,-0.74573 6.35676,4.165107 9.01689,13.855572 5.99733,21.84746 -2.49282,6.597822 -12.25093,13.475382 -21.13489,14.895992 -6.56637,1.05 -7.01964,1.59539 -5.62635,6.76966 1.92633,7.15385 6.08962,11.00733 12.56446,11.62949 6.70482,0.64424 12.22642,-1.0869 17.09162,-5.3586 6.85318,-6.01717 6.82114,-5.81499 6.82114,-43.040591 v -33.77189 l 4.01991,-0.646326 c 2.21095,-0.355478 5.10528,-0.868911 6.43185,-1.140968 l 2.41195,-0.494652 v 39.980986 c 0,34.450941 0.23082,40.310511 1.66874,42.363451 3.88213,5.5425 11.19496,1.06843 11.19496,-6.8492 0,-3.19195 0.74828,-5.43904 2.52072,-7.56969 2.65262,-3.18874 10.44581,-25.603131 12.46566,-35.853113 l 1.187,-6.023537 6.39287,-1.029536 6.39288,-1.029547 1.00794,3.837158 c 8.31189,31.642655 8.99013,35.079595 9.07448,45.984345 l 0.0856,11.05993 -4.43527,4.14193 c -5.17551,4.83321 -11.69358,6.93855 -18.56552,5.99664 -5.05309,-0.6926 -12.91038,-5.13525 -12.91038,-7.29975 0,-0.70087 -1.9528,0.63253 -4.33956,2.96315 -3.96701,3.87368 -4.83522,4.23745 -10.11337,4.23745 -4.95399,0 -6.25096,-0.45664 -9.1341,-3.21592 -1.85524,-1.77554 -3.89929,-5.22817 -4.56372,-7.70863 l -1.20345,-4.49272 -5.08802,5.16891 c -8.48231,8.61717 -19.64688,12.3321 -28.80433,9.58443 z m 83.41195,-10.63356 c 1.92084,-1.78954 2.35015,-3.39254 2.36852,-8.8438 0.0284,-8.41648 -6.54491,-37.664962 -7.61258,-33.872956 -0.39634,1.407686 -2.29473,7.774277 -4.21865,14.147986 -2.61757,8.67172 -3.19057,11.89601 -2.27647,12.81011 1.69608,1.69607 1.53149,7.77686 -0.25053,9.2558 -0.80965,0.67195 -2.25682,0.9206 -3.21593,0.55256 -2.77741,-1.0658 -2.04612,1.56679 1.38964,5.00254 3.89867,3.89868 10.18564,4.32996 13.816,0.94776 z m -77.43155,-22.88188 c 9.16512,-4.26767 13.73183,-12.90345 11.23337,-21.242594 -2.08603,-6.962566 -9.90829,-6.980297 -14.48469,-0.0328 -2.90137,4.404575 -5.94501,14.799971 -5.94501,20.304844 0,4.34479 1.58971,4.51256 9.19633,0.9706 z"
     style="fill:#000000;stroke-width:1.07197547" />
</svg>
