<?xml version="1.0" encoding="UTF-8" standalone="no"?>
<!-- Created with Inkscape (http://www.inkscape.org/) -->

<svg
   xmlns:dc="http://purl.org/dc/elements/1.1/"
   xmlns:cc="http://creativecommons.org/ns#"
   xmlns:rdf="http://www.w3.org/1999/02/22-rdf-syntax-ns#"
   xmlns:svg="http://www.w3.org/2000/svg"
   xmlns="http://www.w3.org/2000/svg"
   xmlns:sodipodi="http://sodipodi.sourceforge.net/DTD/sodipodi-0.dtd"
   xmlns:inkscape="http://www.inkscape.org/namespaces/inkscape"
   version="1.1"
   id="svg4485"
   width="826.22955"
   height="71.858185"
   viewBox="0 0 826.22955 71.858185"
   sodipodi:docname="arworldtravels.inkscape.svg"
   inkscape:version="0.92.1 r15371">
  <metadata
     id="metadata4491">
    <rdf:RDF>
      <cc:Work
         rdf:about="">
        <dc:format>image/svg+xml</dc:format>
        <dc:type
           rdf:resource="http://purl.org/dc/dcmitype/StillImage" />
        <dc:title />
      </cc:Work>
    </rdf:RDF>
  </metadata>
  <defs
     id="defs4489" />
  <sodipodi:namedview
     pagecolor="#ffffff"
     bordercolor="#666666"
     borderopacity="1"
     objecttolerance="10"
     gridtolerance="10"
     guidetolerance="10"
     inkscape:pageopacity="0"
     inkscape:pageshadow="2"
     inkscape:window-width="1920"
     inkscape:window-height="1017"
     id="namedview4487"
     showgrid="false"
     inkscape:zoom="1.742857"
     inkscape:cx="319.87708"
     inkscape:cy="35.929094"
     inkscape:window-x="-8"
     inkscape:window-y="-8"
     inkscape:window-maximized="1"
     inkscape:current-layer="svg4485" />
  <path
     style="fill:#000000"
     d="M 691.50457,70.27224 C 677.6598,65.38418 669.2617,44.97023 673.80624,27.25144 678.22547,10.02121 688.28001,0.875 702.80218,0.875 c 10.25772,0 16.32968,3.44798 20.91809,11.8784 3.07771,5.65477 5.37894,17.9778 4.36575,23.37854 l -0.66192,3.52836 -14.70494,1.78286 c -8.08772,0.98058 -15.61439,2.11929 -16.72593,2.53047 -1.88588,0.69764 -1.76921,0.99939 1.7454,4.514 3.49178,3.49178 4.09594,3.72924 8.2865,3.2569 2.48606,-0.28022 6.81247,-1.6988 9.61425,-3.15242 2.80177,-1.45361 5.30016,-2.4369 5.55197,-2.1851 0.25181,0.25181 -0.0217,4.87077 -0.60779,10.26436 -1.19571,11.00358 -1.52081,11.47554 -9.54669,13.85897 -6.26089,1.85928 -13.81792,1.75942 -19.5323,-0.2581 z M 706.201,30.40332 c 3.67323,-0.55827 3.83079,-1.07754 1.80103,-5.93544 C 706.79751,21.58506 706.03831,21 703.50203,21 c -4.14678,0 -9.05103,5.40215 -9.05103,9.96994 0,0.78609 4.17394,0.58481 11.75,-0.56662 z m 77.89231,38.19177 c -3.77173,-1.36243 -7.084,-2.70345 -7.3606,-2.98005 C 776.2933,65.17563 777.37623,47 777.84182,47 c 0.0982,0 2.73916,0.9 5.86886,2 5.48974,1.92949 15.80582,2.67956 19.15853,1.39301 2.11902,-0.81315 2.01317,-4.10048 -0.16821,-5.22393 -0.9625,-0.49571 -4.56587,-1.14417 -8.0075,-1.44104 -12.32178,-1.06284 -18.61496,-7.43001 -18.50856,-18.7262 0.0917,-9.72948 6.41188,-18.41611 16.0128,-22.00828 6.55365,-2.45203 17.69873,-2.64438 25.14217,-0.43391 l 5.2519,1.55965 -0.69712,9.19034 c -0.38342,5.0547 -0.84487,9.35763 -1.02545,9.56207 -0.18058,0.20444 -3.27398,-0.18409 -6.87421,-0.86341 -7.84524,-1.48029 -15.13514,-0.64085 -16.49463,1.89938 -1.58171,2.95547 0.76257,4.09232 8.43871,4.09232 14.21992,0 21.08804,6.88584 20.21685,20.26902 -0.59034,9.06864 -4.11965,14.84584 -11.66074,19.08768 -4.77058,2.68343 -6.59168,3.10947 -14.5,3.3922 -7.63731,0.27305 -10.111,-0.062 -15.90191,-2.15381 z m -772.824077,0.005 C 5.394259,67.9784 0.32997299,67.2123 0.01526299,66.89759 -0.60269401,66.27963 17.74296,4.37471 18.881441,3.23623 19.423987,2.69368 44.434876,0.94707 45.127487,1.40336 c 0.09707,0.064 4.432119,14.73685 9.63345,32.60645 L 64.217903,66.5 52.584453,68.10938 c -6.398397,0.88517 -11.782856,1.48576 -11.965464,1.33465 -0.182609,-0.1511 -0.88531,-2.45032 -1.561559,-5.10938 L 37.827887,59.5 31.639445,59.20228 c -5.398426,-0.25971 -6.189153,-0.0682 -6.194018,1.5 -0.0086,2.76961 -2.002377,9.31422 -2.791427,9.16287 -0.386648,-0.0742 -5.509793,-0.64346 -11.384767,-1.2651 z M 35.451004,42.9474 c 0,-2.35944 -3.230186,-15.05055 -3.70888,-14.57186 -0.546,0.546 -3.196171,12.2459 -3.255991,14.37446 -0.0216,0.76859 1.312802,1.25 3.464871,1.25 1.925,0 3.5,-0.47367 3.5,-1.0526 z M 65.962673,37.25 C 66.36197,19.2375 66.865157,4.19744 67.080866,3.82764 68.007667,2.2388 82.126897,0 91.220272,0 c 12.547948,0 17.961608,1.76031 24.286858,7.89715 5.03089,4.88103 6.93272,9.43563 6.93272,16.60285 0,7.03705 -1.93971,11.72467 -6.91134,16.70242 l -4.69664,4.70242 5.41996,9.63718 c 2.98099,5.30045 5.03279,9.98792 4.55957,10.41662 C 120.13504,66.57136 103.43718,70 101.12952,70 100.83537,70 99.653492,67.4125 98.503142,64.25 92.896542,48.83668 93.601462,50 89.868292,50 h -3.41729 l -0.0136,7.75 C 86.414902,70.51901 86.889852,70 75.227259,70 H 65.236677 Z M 97.101412,32.4934 C 104.43518,27.68813 100.7724,16 91.932772,16 c -3.93795,0 -4.44865,1.35796 -4.46812,11.88084 l -0.0136,7.38084 3.60577,-0.58514 c 1.98317,-0.32182 4.70326,-1.30423 6.04464,-2.18314 z M 279.05003,42.75 c 0.26139,-14.9875 0.71687,-30.03922 1.01217,-33.44827 l 0.53691,-6.19826 7.45562,-1.65872 c 5.28205,-1.17515 10.72675,-1.55324 18.67595,-1.29691 10.34098,0.33345 11.65135,0.60383 16.72032,3.4501 7.73193,4.34155 12.00222,11.41138 11.99442,19.85782 -0.008,9.0072 -1.53811,13.17537 -6.66409,18.15725 l -4.51303,4.38616 5.46298,9.75041 c 3.53589,6.31092 5.06732,9.96692 4.34135,10.36417 -1.53696,0.84103 -19.61172,4.2412 -20.02601,3.76723 C 313.86346,69.67144 312.15029,65.225 310.23958,60 c -3.45995,-9.46151 -3.48783,-9.5 -6.8813,-9.5 H 299.951 l -0.28621,9.75 -0.28621,9.75 h -10.40191 -10.4019 z m 28.8024,-9.14437 c 6.954,-2.90557 8.6555,-9.70255 3.67549,-14.68256 C 309.38676,16.78191 307.64803,16 305.02792,16 c -3.39144,0 -3.57692,0.17388 -3.57692,3.3533 0,1.84432 -0.28911,6.11932 -0.64246,9.5 -0.61055,5.84147 -0.53447,6.1467 1.53212,6.1467 1.19602,0 3.67631,-0.62747 5.51177,-1.39437 z m 31.93458,10.87421 C 340.15221,30.28749 340.451,14.47356 340.451,9.33778 V 0 h 12.5 c 12.30237,0 12.49968,0.0356 12.4795,2.25 -0.0113,1.2375 -0.68034,9.9 -1.4868,19.25 -0.80646,9.35 -1.47224,18.4625 -1.4795,20.25 L 362.451,45 h 9.62898 9.62899 l -0.68414,9.25 c -0.37627,5.0875 -0.89349,9.97085 -1.14936,10.85189 -0.38389,1.32183 -3.39018,1.8124 -17.19485,2.80591 -9.20129,0.66221 -18.26591,1.46779 -20.14361,1.79016 l -3.41398,0.58614 z M 457.07845,63 c -0.33728,-3.575 -0.61643,-9.69337 -0.62034,-13.59638 -0.004,-3.90301 -0.29668,-11.17592 -0.65061,-16.16203 l -0.6435,-9.06566 -7.1065,0.5394 -7.1065,0.53941 0.31054,-11.62737 L 441.57208,2 h 26.43946 26.43946 l -0.007,3.75 c -0.004,2.0625 -0.29398,6.7875 -0.6446,10.5 L 493.1619,23 h -6.77007 -6.77008 l -0.55196,7.25 c -0.30358,3.9875 -0.81932,14.21485 -1.1461,22.72744 -0.32677,8.5126 -0.67929,15.55608 -0.78336,15.6522 -0.10407,0.0961 -4.52257,0.33126 -9.81888,0.52255 L 457.69167,69.5 Z m 40.50798,-10.25 c 0.0745,-9.4875 0.41198,-24.45 0.75,-33.25 l 0.61457,-16 6.5,-1.68178 c 8.86541,-2.29379 26.01439,-2.37339 32.53668,-0.15103 6.76167,2.30394 13.73997,9.40305 15.28863,15.55331 2.51139,9.97365 0.69399,17.35543 -5.89517,23.94459 l -4.72047,4.72048 5.44819,9.67085 c 2.99651,5.31896 5.21721,9.90184 4.93488,10.18417 -1.1034,1.1034 -19.85922,4.38685 -20.55051,3.59763 C 532.08941,68.8772 530.28453,64.3375 528.48238,59.25 525.22558,50.05599 525.1853,50 521.82837,50 c -3.36126,0 -3.37741,0.0227 -3.38606,4.75 -0.005,2.6125 -0.29246,7.1125 -0.63929,10 l -0.6306,5.25 h -9.86071 -9.86071 z m 29.3162,-19.16535 c 9.25781,-3.86816 6.60678,-18.20799 -3.2157,-17.39418 L 519.951,16.5 l -0.28753,9.25 c -0.2729,8.7797 -0.1823,9.25 1.78212,9.25 1.13831,0 3.59397,-0.63691 5.45704,-1.41535 z m 39.3666,35.0154 c -5.87497,-0.62165 -10.93926,-1.38775 -11.25397,-1.70246 -0.61796,-0.61796 17.7277,-62.52288 18.86618,-63.66136 0.54254,-0.54255 25.55343,-2.28916 26.24604,-1.83287 0.0971,0.064 4.43212,14.73685 9.63345,32.60645 L 619.2179,66.5 607.58445,68.10938 c -6.3984,0.88517 -11.78286,1.48576 -11.96547,1.33465 -0.1826,-0.1511 -0.88531,-2.45032 -1.56155,-5.10938 L 592.82788,59.5 586.63944,59.20228 c -5.39842,-0.25971 -6.18915,-0.0682 -6.19402,1.5 -0.009,2.76961 -2.00237,9.31422 -2.79142,9.16287 -0.38665,-0.0742 -5.5098,-0.64346 -11.38477,-1.2651 z M 590.451,42.9474 c 0,-2.35944 -3.23019,-15.05055 -3.70888,-14.57186 -0.546,0.546 -3.19617,12.2459 -3.25599,14.37446 -0.0216,0.76859 1.3128,1.25 3.46487,1.25 1.925,0 3.5,-0.47367 3.5,-1.0526 z m 31.65213,-4.67166 C 616.15506,20.98015 611.43753,6.69105 611.61973,6.52219 612.37684,5.8205 633.00157,4.24465 633.56564,4.8454 c 0.33805,0.36003 2.53615,8.44649 4.88467,17.96992 2.34852,9.52343 4.60989,16.94843 5.02527,16.5 0.41538,-0.44843 2.62862,-9.12667 4.91832,-19.28499 2.2897,-10.15831 4.25174,-18.52834 4.36009,-18.60008 0.51692,-0.34221 20.68975,1.22915 21.10453,1.64394 0.2613,0.2613 -3.436,14.97523 -8.21621,32.69762 l -8.69131,32.22254 -3,0.45684 c -1.65,0.25125 -7.05747,0.64004 -12.0166,0.86396 l -9.01659,0.40713 z M 732.02315,49.33048 C 732.28959,37.87372 732.76664,22.0875 733.08326,14.25 L 733.65892,0 h 12.40786 12.40786 l -0.50449,3.75 c -0.27746,2.0625 -0.96173,9.825 -1.5206,17.25 -0.55887,7.425 -1.26956,15.8625 -1.5793,18.75 L 754.30709,45 h 10.15985 10.15986 l -0.54665,3.75 c -0.30066,2.0625 -0.82942,6.9481 -1.17502,10.8569 l -0.62837,7.10691 -16.66288,1.17548 c -9.16458,0.64651 -18.33065,1.42212 -20.36903,1.72358 l -3.70615,0.5481 z M 172.59962,57.75 c -1.14362,-6.1875 -2.37741,-13.1625 -2.74177,-15.5 -0.36436,-2.3375 -0.9722,-4.25 -1.35076,-4.25 -0.37855,0 -1.8798,6.35875 -3.3361,14.13057 -1.45629,7.77182 -2.77655,14.2435 -2.9339,14.38151 -0.15735,0.138 -6.3533,0.41675 -13.76877,0.61942 L 134.98564,67.5 129.29732,36.50433 c -3.12858,-17.04761 -5.61138,-31.04886 -5.51733,-31.11389 0.34221,-0.23662 23.1777,-2.13998 23.40485,-1.95082 0.12861,0.1071 1.23687,8.377 2.46279,18.37755 C 150.87355,31.81772 152.12767,40 152.43457,40 c 0.3069,0 1.92207,-7.5375 3.58928,-16.75 L 159.05514,6.5 h 9.40541 9.40541 l 3.54252,16.677 c 1.94839,9.17235 3.78812,16.91795 4.0883,17.21244 0.30017,0.29449 1.35242,-8.33516 2.33833,-19.177 0.98591,-10.84184 1.86531,-19.76581 1.95422,-19.83103 0.0889,-0.0652 5.48244,0.34575 11.9856,0.91328 10.23343,0.89308 11.76557,1.25506 11.39006,2.69099 -0.23862,0.91252 -2.85396,15.68904 -5.81185,32.83672 L 201.97516,69 h -13.64812 -13.64812 z m 212.37338,-20 c 0.388,-17.1875 0.99178,-31.53945 1.34173,-31.89322 2.86857,-2.89989 25.70949,-3.76663 34.04308,-1.29182 7.78971,2.3133 15.35702,9.97848 17.62766,17.85565 3.69287,12.81111 0.245,26.77045 -8.67235,35.11159 C 420.72214,65.56805 410.0972,69 393.81005,69 h -9.54252 z m 26.27766,11.84501 c 6.70864,-3.4905 9.89787,-10.5233 8.20349,-18.09011 C 418.43193,26.93983 414.49546,23 410.95651,23 c -2.71364,0 -2.97137,1.15647 -4.06714,18.25 -0.6743,10.51875 -0.49093,10.86962 4.36129,8.34501 z M 234.07991,64.31425 c -6.59252,-2.27764 -14.74628,-9.88957 -17.72176,-16.54414 -3.46479,-7.7489 -3.37373,-19.20495 0.21346,-26.8566 3.32438,-7.09105 8.71867,-12.49276 15.63984,-15.66138 4.79984,-2.19744 6.44244,-2.43636 14.08648,-2.04894 9.61792,0.48747 14.6721,2.46968 20.07615,7.87373 6.82846,6.82846 9.90622,17.75491 7.99089,28.3687 -1.93431,10.71901 -7.12528,18.17446 -16.02795,23.01989 -6.66689,3.62858 -16.8574,4.40524 -24.25711,1.84874 z M 250.52792,43.07692 C 252.97924,40.62561 253.451,39.34684 253.451,35.15364 253.451,28.21495 249.98725,24 244.28518,24 c -8.09223,0 -12.48825,8.96691 -8.3342,16.99995 3.03774,5.87435 9.81405,6.83986 14.57694,2.07697 z"
     id="path4495"
     inkscape:connector-curvature="0" />
</svg>
