<?xml version="1.0" encoding="UTF-8" standalone="no"?>
<svg
   xmlns:dc="http://purl.org/dc/elements/1.1/"
   xmlns:cc="http://creativecommons.org/ns#"
   xmlns:rdf="http://www.w3.org/1999/02/22-rdf-syntax-ns#"
   xmlns:svg="http://www.w3.org/2000/svg"
   xmlns="http://www.w3.org/2000/svg"
   viewBox="0 0 1000 150"
   height="150"
   width="1000"
   id="svg4485"
   version="1.1">
  <metadata
     id="metadata4491">
    <rdf:RDF>
      <cc:Work
         rdf:about="">
        <dc:format>image/svg+xml</dc:format>
        <dc:type
           rdf:resource="http://purl.org/dc/dcmitype/StillImage" />
        <dc:title></dc:title>
      </cc:Work>
    </rdf:RDF>
  </metadata>
  <defs
     id="defs4489" />
  <path
     id="path4495"
     d="m 778.38978,109.34315 c -13.84477,-4.88806 -22.24287,-25.302016 -17.69833,-43.020806 4.41923,-17.23023 14.47377,-26.37644 28.99594,-26.37644 10.25772,0 16.32968,3.44798 20.91809,11.8784 3.07771,5.65477 5.37894,17.9778 4.36575,23.37854 l -0.66192,3.52836 -14.70494,1.78286 c -8.08772,0.98058 -15.61439,2.11929 -16.72593,2.53047 -1.88588,0.69764 -1.76921,0.99939 1.7454,4.514 3.49178,3.49178 4.09594,3.72924 8.2865,3.2569 2.48606,-0.28022 6.81247,-1.6988 9.61425,-3.15242 2.80177,-1.45361 5.30016,-2.4369 5.55197,-2.1851 0.25181,0.25181 -0.0217,4.87077 -0.60779,10.26436 -1.19571,11.003586 -1.52081,11.475546 -9.54669,13.858976 -6.26089,1.85928 -13.81792,1.75942 -19.5323,-0.2581 z m 14.69643,-39.868926 c 3.67323,-0.55827 3.83079,-1.07754 1.80103,-5.93544 -1.20452,-2.88282 -1.96372,-3.46788 -4.5,-3.46788 -4.14678,0 -9.05103,5.40215 -9.05103,9.96994 0,0.78609 4.17394,0.58481 11.75,-0.56662 z M 870.97852,107.666 c -3.77173,-1.36243 -7.084,-2.70345 -7.3606,-2.98005 -0.43941,-0.43941 0.64352,-18.615046 1.10911,-18.615046 0.0982,0 2.73916,0.9 5.86886,2 5.48974,1.92949 15.80582,2.67956 19.15853,1.39301 2.11902,-0.81315 2.01317,-4.10048 -0.16821,-5.22393 -0.9625,-0.49571 -4.56587,-1.14417 -8.0075,-1.44104 -12.32178,-1.06284 -18.61496,-7.43001 -18.50856,-18.7262 0.0917,-9.72948 6.41188,-18.41611 16.0128,-22.00828 6.55365,-2.45203 17.69873,-2.64438 25.14217,-0.43391 l 5.2519,1.55965 -0.69712,9.19034 c -0.38342,5.0547 -0.84487,9.35763 -1.02545,9.56207 -0.18058,0.20444 -3.27398,-0.18409 -6.87421,-0.86341 -7.84524,-1.48029 -15.13514,-0.64085 -16.49463,1.89938 -1.58171,2.95547 0.76257,4.09232 8.43871,4.09232 14.21992,0 21.08804,6.88584 20.21685,20.26902 -0.59034,9.06864 -4.11965,14.845846 -11.66074,19.087686 -4.77058,2.68343 -6.59168,3.10947 -14.5,3.3922 -7.63731,0.27305 -10.111,-0.062 -15.90191,-2.15381 z m -772.824077,0.005 c -5.874974,-0.62169 -10.93926,-1.38779 -11.25397,-1.7025 -0.617957,-0.61796 17.727697,-62.522886 18.866177,-63.661366 0.54255,-0.54255 25.55344,-2.28916 26.24605,-1.83287 0.0971,0.064 4.43212,14.73685 9.63345,32.60645 l 9.45696,32.490196 -11.63345,1.60938 c -6.39839,0.88517 -11.78285,1.48576 -11.96546,1.33465 -0.18261,-0.1511 -0.88531,-2.45032 -1.56156,-5.10938 l -1.22954,-4.834656 -6.18844,-0.29772 c -5.39843,-0.25971 -6.18916,-0.0682 -6.19402,1.5 -0.009,2.769616 -2.00238,9.314226 -2.79143,9.162876 -0.38665,-0.0742 -5.50979,-0.64346 -11.384767,-1.2651 z M 122.33621,82.018304 c 0,-2.35944 -3.23018,-15.05055 -3.70888,-14.57186 -0.546,0.546 -3.19617,12.2459 -3.25599,14.37446 -0.0216,0.76859 1.31281,1.25 3.46487,1.25 1.925,0 3.5,-0.47367 3.5,-1.0526 z m 30.51167,-5.6974 c 0.3993,-18.0125 0.90249,-33.05256 1.1182,-33.42236 0.9268,-1.58884 15.04603,-3.82764 24.1394,-3.82764 12.54795,0 17.96161,1.76031 24.28686,7.89715 5.03089,4.88103 6.93272,9.43563 6.93272,16.60285 0,7.03705 -1.93971,11.72467 -6.91134,16.70242 l -4.69664,4.70242 5.41996,9.63718 c 2.98099,5.30045 5.03279,9.987926 4.55957,10.416626 -0.67636,0.61272 -17.37422,4.04136 -19.68188,4.04136 -0.29415,0 -1.47603,-2.5875 -2.62638,-5.75 -5.6066,-15.413326 -4.90168,-14.250006 -8.63485,-14.250006 h -3.41729 l -0.0136,7.75 c -0.0225,12.769016 0.45245,12.250006 -11.21014,12.250006 h -9.99058 z m 31.13874,-4.7566 c 7.33377,-4.80527 3.67099,-16.4934 -5.16864,-16.4934 -3.93795,0 -4.44865,1.35796 -4.46812,11.88084 l -0.0136,7.38084 3.60577,-0.58514 c 1.98317,-0.32182 4.70326,-1.30423 6.04464,-2.18314 z m 181.94862,10.2566 c 0.26139,-14.9875 0.71687,-30.03922 1.01217,-33.44827 l 0.53691,-6.19826 7.45562,-1.65872 c 5.28205,-1.17515 10.72675,-1.55324 18.67595,-1.29691 10.34098,0.33345 11.65135,0.60383 16.72032,3.4501 7.73193,4.34155 12.00222,11.41138 11.99442,19.85782 -0.008,9.0072 -1.53811,13.17537 -6.66409,18.15725 l -4.51303,4.38616 5.46298,9.75041 c 3.53589,6.310926 5.06732,9.966926 4.34135,10.364176 -1.53696,0.84103 -19.61172,4.2412 -20.02601,3.76723 -0.18316,-0.20954 -1.89633,-4.65598 -3.80704,-9.880986 -3.45995,-9.46151 -3.48783,-9.5 -6.8813,-9.5 h -3.40728 l -0.28621,9.75 -0.28621,9.750006 h -10.40191 -10.4019 z m 28.8024,-9.14437 c 6.954,-2.90557 8.6555,-9.70255 3.67549,-14.68256 -2.14116,-2.14116 -3.87989,-2.92307 -6.5,-2.92307 -3.39144,0 -3.57692,0.17388 -3.57692,3.3533 0,1.84432 -0.28911,6.11932 -0.64246,9.5 -0.61055,5.84147 -0.53447,6.1467 1.53212,6.1467 1.19602,0 3.67631,-0.62747 5.51177,-1.39437 z m 31.93458,10.87421 c 0.3652,-14.19235 0.66399,-30.00628 0.66399,-35.14206 v -9.33778 h 12.5 c 12.30237,0 12.49968,0.0356 12.4795,2.25 -0.0113,1.2375 -0.68034,9.9 -1.4868,19.25 -0.80646,9.35 -1.47224,18.4625 -1.4795,20.25 l -0.0132,3.25 h 9.62898 9.62899 l -0.68414,9.25 c -0.37627,5.0875 -0.89349,9.970856 -1.14936,10.851896 -0.38389,1.32183 -3.39018,1.8124 -17.19485,2.80591 -9.20129,0.66221 -18.26591,1.46779 -20.14361,1.79016 l -3.41398,0.58614 z m 117.29144,18.520166 c -0.33728,-3.575006 -0.61643,-9.693376 -0.62034,-13.596386 -0.004,-3.90301 -0.29668,-11.17592 -0.65061,-16.16203 l -0.6435,-9.06566 -7.1065,0.5394 -7.1065,0.53941 0.31054,-11.62737 0.31054,-11.62737 h 26.43946 26.43946 l -0.007,3.75 c -0.004,2.0625 -0.29398,6.7875 -0.6446,10.5 l -0.6375,6.75 h -6.77007 -6.77008 l -0.55196,7.25 c -0.30358,3.9875 -0.81932,14.21485 -1.1461,22.72744 -0.32677,8.512606 -0.67929,15.556086 -0.78336,15.652206 -0.10407,0.0961 -4.52257,0.33126 -9.81888,0.52255 l -9.62978,0.34781 z m 40.50798,-10.250006 c 0.0745,-9.4875 0.41198,-24.45 0.75,-33.25 l 0.61457,-16 6.5,-1.68178 c 8.86541,-2.29379 26.01439,-2.37339 32.53668,-0.15103 6.76167,2.30394 13.73997,9.40305 15.28863,15.55331 2.51139,9.97365 0.69399,17.35543 -5.89517,23.94459 l -4.72047,4.72048 5.44819,9.67085 c 2.99651,5.31896 5.21721,9.901846 4.93488,10.184176 -1.1034,1.1034 -19.85922,4.38685 -20.55051,3.59763 -0.40382,-0.46102 -2.2087,-5.00072 -4.01085,-10.088226 -3.2568,-9.19401 -3.29708,-9.25 -6.65401,-9.25 -3.36126,0 -3.37741,0.0227 -3.38606,4.75 -0.005,2.6125 -0.29246,7.112506 -0.63929,10.000006 l -0.6306,5.25 h -9.86071 -9.86071 z m 29.3162,-19.16535 c 9.25781,-3.86816 6.60678,-18.20799 -3.2157,-17.39418 l -3.73593,0.30953 -0.28753,9.25 c -0.2729,8.7797 -0.1823,9.25 1.78212,9.25 1.13831,0 3.59397,-0.63691 5.45704,-1.41535 z m 39.3666,35.015406 c -5.87497,-0.62165 -10.93926,-1.38775 -11.25397,-1.70246 -0.61796,-0.61796 17.7277,-62.522886 18.86618,-63.661366 0.54254,-0.54255 25.55343,-2.28916 26.24604,-1.83287 0.0971,0.064 4.43212,14.73685 9.63345,32.60645 l 9.45697,32.490196 -11.63345,1.60938 c -6.3984,0.88517 -11.78286,1.48576 -11.96547,1.33465 -0.1826,-0.1511 -0.88531,-2.45032 -1.56155,-5.10938 l -1.22955,-4.834656 -6.18844,-0.29772 c -5.39842,-0.25971 -6.18915,-0.0682 -6.19402,1.5 -0.009,2.769616 -2.00237,9.314226 -2.79142,9.162876 -0.38665,-0.0742 -5.5098,-0.64346 -11.38477,-1.2651 z m 24.18177,-25.652656 c 0,-2.35944 -3.23019,-15.05055 -3.70888,-14.57186 -0.546,0.546 -3.19617,12.2459 -3.25599,14.37446 -0.0216,0.76859 1.3128,1.25 3.46487,1.25 1.925,0 3.5,-0.47367 3.5,-1.0526 z m 31.65213,-4.67166 c -5.94807,-17.29559 -10.6656,-31.58469 -10.4834,-31.75355 0.75711,-0.70169 21.38184,-2.27754 21.94591,-1.67679 0.33805,0.36003 2.53615,8.44649 4.88467,17.96992 2.34852,9.52343 4.60989,16.94843 5.02527,16.5 0.41538,-0.44843 2.62862,-9.12667 4.91832,-19.28499 2.2897,-10.15831 4.25174,-18.52834 4.36009,-18.60008 0.51692,-0.34221 20.68975,1.22915 21.10453,1.64394 0.2613,0.2613 -3.436,14.97523 -8.21621,32.69762 l -8.69131,32.222546 -3,0.45684 c -1.65,0.25125 -7.05747,0.64004 -12.0166,0.86396 l -9.01659,0.40713 z m 109.92002,11.05474 c 0.26644,-11.45676 0.74349,-27.24298 1.06011,-35.08048 l 0.57566,-14.25 h 12.40786 12.40786 l -0.50449,3.75 c -0.27746,2.0625 -0.96173,9.825 -1.5206,17.25 -0.55887,7.425 -1.26956,15.8625 -1.5793,18.75 l -0.56316,5.25 h 10.15985 10.15986 l -0.54665,3.75 c -0.30066,2.0625 -0.82942,6.9481 -1.17502,10.8569 l -0.62837,7.106916 -16.66288,1.17548 c -9.16458,0.64651 -18.33065,1.42212 -20.36903,1.72358 l -3.70615,0.5481 z m -559.42353,8.41952 c -1.14362,-6.1875 -2.37741,-13.1625 -2.74177,-15.5 -0.36436,-2.3375 -0.9722,-4.25 -1.35076,-4.25 -0.37855,0 -1.8798,6.35875 -3.3361,14.13057 -1.45629,7.77182 -2.77655,14.243506 -2.9339,14.381516 -0.15735,0.138 -6.3533,0.41675 -13.76877,0.61942 l -13.48268,0.3685 -5.68832,-30.995676 c -3.12858,-17.04761 -5.61138,-31.04886 -5.51733,-31.11389 0.34221,-0.23662 23.1777,-2.13998 23.40485,-1.95082 0.12861,0.1071 1.23687,8.377 2.46279,18.37755 1.22592,10.00055 2.48004,18.18283 2.78694,18.18283 0.3069,0 1.92207,-7.5375 3.58928,-16.75 l 3.03129,-16.75 h 9.40541 9.40541 l 3.54252,16.677 c 1.94839,9.17235 3.78812,16.91795 4.0883,17.21244 0.30017,0.29449 1.35242,-8.33516 2.33833,-19.177 0.98591,-10.84184 1.86531,-19.76581 1.95422,-19.83103 0.0889,-0.0652 5.48244,0.34575 11.9856,0.91328 10.23343,0.89308 11.76557,1.25506 11.39006,2.69099 -0.23862,0.91252 -2.85396,15.68904 -5.81185,32.83672 l -5.37798,31.177606 h -13.64812 -13.64812 z m 212.37338,-20 c 0.388,-17.1875 0.99178,-31.53945 1.34173,-31.89322 2.86857,-2.89989 25.70949,-3.76663 34.04308,-1.29182 7.78971,2.3133 15.35702,9.97848 17.62766,17.85565 3.69287,12.81111 0.245,26.77045 -8.67235,35.11159 -8.59098,8.035856 -19.21592,11.467806 -35.50307,11.467806 h -9.54252 z m 26.27766,11.84501 c 6.70864,-3.4905 9.89787,-10.5233 8.20349,-18.09011 -1.02222,-4.56507 -4.95869,-8.5049 -8.49764,-8.5049 -2.71364,0 -2.97137,1.15647 -4.06714,18.25 -0.6743,10.51875 -0.49093,10.86962 4.36129,8.34501 z M 320.96512,103.38516 c -6.59252,-2.27764 -14.74628,-9.889576 -17.72176,-16.544146 -3.46479,-7.7489 -3.37373,-19.20495 0.21346,-26.8566 3.32438,-7.09105 8.71867,-12.49276 15.63984,-15.66138 4.79984,-2.19744 6.44244,-2.43636 14.08648,-2.04894 9.61792,0.48747 14.6721,2.46968 20.07615,7.87373 6.82846,6.82846 9.90622,17.75491 7.99089,28.3687 -1.93431,10.71901 -7.12528,18.17446 -16.02795,23.019896 -6.66689,3.62858 -16.8574,4.40524 -24.25711,1.84874 z m 16.44801,-21.237336 c 2.45132,-2.45131 2.92308,-3.73008 2.92308,-7.92328 0,-6.93869 -3.46375,-11.15364 -9.16582,-11.15364 -8.09223,0 -12.48825,8.96691 -8.3342,16.99995 3.03774,5.87435 9.81405,6.83986 14.57694,2.07697 z"
     style="fill:#000000" />
</svg>
