<svg xmlns="http://www.w3.org/2000/svg"
     viewBox="0 0 653 89.016701"
     height="20.4479405"
     width="150"
     id="svg4485"
     version="1.1">
    <defs id="defs4489" />
    <path id="path4513"
          d="M 14.711445,87.909317 C 9.8741983,86.514297 4.0468273,80.15913 1.8733333,73.90844 -0.78800961,66.25475 -0.59443261,53.70282 2.3308863,44.23966 4.1106233,38.48236 5.5808643,35.91656 9.2935353,32.08873 16.75047,24.40051 26.471842,22.919 32.157219,28.60438 c 3.102623,3.10262 3.342818,3.06193 3.342818,-0.56628 v -3 h 6 6 v 24.7775 c 0,20.8071 0.249449,25.13363 1.556704,27 1.995857,2.84948 5.778442,2.85251 8.429671,0.007 3.998346,-4.29177 5.013625,-10.76496 5.013625,-31.9658 V 25.0383 h 6 6 v 5.69701 5.697 l 3.004173,-4.08504 c 5.254708,-7.1453 13.083774,-9.31193 17.541276,-4.85442 2.97301,2.97301 3.15728,6.84272 0.45455,9.54545 -2.38085,2.38086 -3.946382,2.50779 -6.558869,0.53181 -3.153097,-2.38489 -7.037526,-1.82507 -10.906334,1.57179 l -3.534796,3.10359 V 65.1419 88.038297 h -6 -6 V 84.07703 80.11575 L 58.5718,84.32703 c -3.601677,3.861177 -4.343163,4.211267 -8.919436,4.211267 -5.567438,0 -9.01853,-2.34855 -11.203922,-7.624557 l -1.212407,-2.92701 -3.557302,4.15591 c -5.436989,6.351897 -11.035934,8.054217 -18.967288,5.766877 z M 30.294182,76.2304 c 4.221133,-3.94313 5.193892,-8.61731 5.200278,-24.98775 0.0054,-13.84811 -0.07123,-14.37227 -2.448968,-16.75 -5.435491,-5.43549 -13.27652,-1.98006 -17.636987,7.77237 -2.027556,4.53475 -2.361233,6.88331 -2.383073,16.77308 -0.0212,9.60209 0.291506,12.02368 1.894805,14.67313 3.620178,5.98235 10.465795,7.10407 15.373945,2.51917 z m 84.848408,11.779497 c -3.93228,-1.1784 -6.59488,-3.752867 -8.76182,-8.471797 -1.62616,-3.54128 -1.83932,-6.89564 -1.85877,-29.25 l -0.022,-25.25 h 5.95112 5.95112 l 0.29888,25.08983 c 0.29776,24.99593 0.30771,25.09697 2.65966,27 3.43168,2.77666 7.27705,2.41952 10.53226,-0.97818 3.96173,-4.13516 4.55633,-8.13908 4.5831,-30.86165 l 0.0239,-20.25 h 6 6 v 24.81144 c 0,23.5872 0.10061,24.91943 2.03896,27 3.10183,3.32943 8.00353,2.9252 11.81616,-0.97446 5.09764,-5.21398 6.62264,-11.38271 6.63451,-26.83698 l 0.0104,-13.5 -2.68673,0.31328 c -5.66147,0.66013 -8.93424,-6.69231 -4.81327,-10.81328 2.76739,-2.76738 5.65268,-2.50117 8.98265,0.82881 3.80971,3.80971 5.00844,8.77106 4.99441,20.67119 -0.0206,17.50936 -4.01958,30.51918 -11.50056,37.4149 -7.26095,6.692907 -16.29502,6.466577 -23.3465,-0.5849 l -3.46982,-3.46982 -2.49712,3.19073 c -4.09194,5.228527 -10.49383,7.026587 -17.52051,4.920887 z m 80.98222,-0.4409 c -5.06457,-1.80526 -10.3844,-6.940747 -12.8541,-12.408677 -4.52075,-10.00898 -2.90943,-29.78135 3.21385,-39.43675 9.86824,-15.56061 31.80246,-13.50086 36.13223,3.39302 0.72624,2.83363 1.8499,5.35522 2.49703,5.60355 0.64712,0.24832 3.02376,-0.0459 5.28141,-0.65381 l 4.10481,-1.10531 V 33.99956 25.0381 h 5.9501 5.95009 l 0.29991,5.68888 0.2999,5.68887 2.48282,-3.63558 c 2.85528,-4.18097 8.5814,-7.74217 12.44879,-7.74217 3.38222,0 7.56839,4.1232 7.56839,7.45455 0,2.68228 -3.13153,6.56755 -5.25,6.51365 -0.6875,-0.0175 -2.12351,-0.69249 -3.19113,-1.5 -3.13146,-2.36851 -7.14138,-1.77365 -11.02407,1.6354 l -3.5348,3.10359 V 65.1417 88.038097 h -6 -6 V 68.0381 c 0,-11 -0.1125,-19.99317 -0.25,-19.98482 -0.1375,0.008 -2.275,0.6191 -4.75,1.35721 l -4.5,1.34202 -0.66114,9.3928 c -0.36362,5.16604 -1.38495,11.38689 -2.26962,13.82412 -4.45288,12.267597 -14.66448,17.620297 -25.94447,13.599567 z m 14.70192,-9.633877 c 4.36875,-1.99054 7.03332,-8.39432 7.49295,-18.00785 l 0.41179,-8.61284 -3.11572,-1.08614 c -2.81191,-0.98024 -3.11571,-1.49037 -3.11571,-5.23179 0,-3.30463 0.40573,-4.25174 2,-4.66865 2.68823,-0.70299 2.52017,-2.86048 -0.45455,-5.8352 -5.63557,-5.63558 -14.71725,-1.23084 -18.23057,8.84208 -2.57925,7.39487 -2.5417,23.74046 0.0666,28.99032 2.94251,5.92258 9.14739,8.25173 14.94521,5.61007 z m 73.70733,9.351427 c -1.90629,-0.96165 -4.38129,-3.323447 -5.5,-5.248447 -1.93331,-3.3267 -2.04859,-5.39123 -2.32833,-41.69637 l -0.29431,-38.19638 3.79431,-0.61124 c 2.08687,-0.33618 4.80681,-0.81888 6.04431,-1.07267 L 288.50004,0 v 35.86983 c 0,38.3062 0.3669,41.72029 4.59769,42.78215 6.45079,1.61904 8.79898,-2.83381 8.97564,-17.02044 0.18497,-14.85299 2.66277,-22.78229 9.23731,-29.56059 7.4394,-7.66997 17.16713,-9.14599 22.84654,-3.46657 1.33855,1.33855 2.63827,2.43372 2.88827,2.43372 0.25,0 0.45455,-6.50461 0.45455,-14.45468 V 2.12873 l 3.75,-0.60293 c 2.0625,-0.33161 4.7625,-0.81057 6,-1.06436 L 349.50004,0 v 37.29655 c 0,32.13781 0.21532,37.60395 1.5567,39.51905 1.85714,2.65143 5.63028,2.89266 8.01078,0.51216 4.09324,-4.09323 4.84739,-8.12994 5.23846,-28.03966 l 0.37811,-19.25 h -2.59203 c -2.09815,0 -2.59202,-0.47633 -2.59202,-2.5 0,-2 0.5,-2.5 2.5,-2.5 2.46954,0 2.5,-0.10302 2.5,-8.45468 V 8.12873 l 3.75,-0.60293 c 2.0625,-0.33161 4.7625,-0.81057 6,-1.06436 2.20807,-0.45284 2.25,-0.28405 2.25,9.05761 v 9.51905 h 4.5 c 4.13333,0 4.5,0.20371 4.5,2.5 0,2.2963 -0.36667,2.5 -4.5,2.5 h -4.5 v 22.2775 c 0,18.5444 0.26086,22.64992 1.5567,24.5 2.15186,3.07221 6.81787,2.93885 10.04378,-0.28707 4.88383,-4.88382 5.39952,-7.79282 5.39952,-30.45831 V 25.0381 h 5.9501 5.95009 l 0.29991,5.68888 0.2999,5.68887 2.48282,-3.63558 c 2.85528,-4.18097 8.5814,-7.74217 12.44879,-7.74217 3.38222,0 7.56839,4.1232 7.56839,7.45455 0,2.68228 -3.13153,6.56755 -5.25,6.51365 -0.6875,-0.0175 -2.12351,-0.69249 -3.19113,-1.5 -3.13146,-2.36851 -7.14138,-1.77365 -11.02407,1.6354 l -3.5348,3.10359 V 65.1417 88.038097 h -6 -6 V 83.53522 79.03234 l -3.56597,3.9471 c -4.09679,4.534667 -9.07424,6.536337 -13.96977,5.617937 -3.868,-0.72565 -9.05085,-4.681377 -9.98344,-7.619717 -0.55395,-1.74532 -1.12331,-1.4234 -4.9415,2.79392 -4.05551,4.479457 -4.61695,4.766517 -9.32238,4.766517 -5.71651,0 -8.62984,-1.9598 -10.90395,-7.335127 l -1.41097,-3.33513 -3.97458,4.51536 c -4.63679,5.267667 -9.2654,7.131227 -15.41988,6.208307 -4.9465,-0.74177 -11.34057,-4.961007 -13.40603,-8.846187 l -1.39846,-2.63056 -2.8656,4.51857 c -4.41262,6.957977 -11.04328,9.063447 -17.80345,5.653217 z M 332.29418,76.2304 c 4.22114,-3.94313 5.1939,-8.61731 5.20028,-24.98775 0.005,-13.84811 -0.0712,-14.37227 -2.44897,-16.75 -5.43549,-5.43549 -13.27651,-1.98006 -17.63698,7.77237 -2.02756,4.53475 -2.36124,6.88331 -2.38307,16.77308 -0.0212,9.60209 0.2915,12.02368 1.8948,14.67313 3.62018,5.98235 10.4658,7.10407 15.37394,2.51917 z m 116.41727,11.678917 c -4.83725,-1.39502 -10.66462,-7.750187 -12.83811,-14.000877 -2.66135,-7.65369 -2.46777,-20.20562 0.45755,-29.66878 1.77974,-5.7573 3.24998,-8.3231 6.96265,-12.15093 7.45693,-7.68822 17.17831,-9.16973 22.86368,-3.48435 3.10262,3.10262 3.34282,3.06193 3.34282,-0.56628 v -3 h 6 6 v 24.7775 c 0,20.8071 0.24945,25.13363 1.5567,27 1.99586,2.84948 5.77845,2.85251 8.42968,0.007 3.99834,-4.29177 5.01362,-10.76496 5.01362,-31.9658 V 25.0383 h 6 6 v 24.36514 c 0,23.13537 0.10461,24.49814 2.07258,27 4.43965,5.6441 11.86595,2.54939 15.93018,-6.63847 2.48194,-5.61084 4.13604,-19.38352 3.34725,-27.87055 -0.60079,-6.46424 -0.75318,-6.79303 -2.89893,-6.25448 -7.03546,1.76579 -10.29429,-9.92969 -3.37842,-12.1247 2.96223,-0.94017 7.26729,1.13568 9.22366,4.44754 4.31338,7.30197 4.12137,28.96181 -0.37506,42.30925 -3.93998,11.69566 -11.07519,18.679337 -19.15102,18.744307 -4.83749,0.0389 -10.82675,-3.07337 -13.79219,-7.167037 -2.39356,-3.30421 -2.9066,-3.61148 -3.40548,-2.03963 -0.32306,1.01786 -2.18404,3.3982 -4.13552,5.28964 -3.05494,2.960967 -4.22422,3.438987 -8.41203,3.438987 -5.43102,0 -8.9105,-2.39509 -11.07662,-7.624557 l -1.2124,-2.92701 -3.5573,4.15591 c -5.43699,6.351897 -11.03594,8.054217 -18.96729,5.766877 z M 464.29418,76.2304 c 4.22114,-3.94313 5.1939,-8.61731 5.20028,-24.98775 0.005,-13.84811 -0.0712,-14.37227 -2.44897,-16.75 -5.43549,-5.43549 -13.27651,-1.98006 -17.63698,7.77237 -2.02756,4.53475 -2.36124,6.88331 -2.38307,16.77308 -0.0212,9.60209 0.2915,12.02368 1.8948,14.67313 3.62018,5.98235 10.4658,7.10407 15.37394,2.51917 z m 96.20586,11.688347 c -5.6164,-1.68519 -10.03797,-5.731537 -12.86545,-11.773677 -2.29085,-4.8954 -2.62079,-6.87604 -2.59984,-15.60697 0.0374,-15.58432 4.53318,-26.7363 13.10202,-32.5 4.75364,-3.19745 15.31758,-3.5704 19.70499,-0.69566 5.92995,3.88545 8.41147,12.92527 5.59466,20.38056 -2.32545,6.15483 -11.42837,12.57061 -19.71584,13.89583 -6.12548,0.9795 -6.54832,1.48827 -5.24858,6.31513 1.79699,6.67352 5.68075,10.26827 11.72085,10.84865 6.25464,0.60099 11.4055,-1.01392 15.94404,-4.99881 6.39304,-5.61316 6.36315,-5.42455 6.36315,-40.15072 V 2.12873 l 3.75,-0.60293 c 2.0625,-0.33161 4.7625,-0.81057 6,-1.06436 L 604.50004,0 v 37.29655 c 0,32.13781 0.21532,37.60395 1.5567,39.51905 3.62147,5.17036 10.4433,0.99669 10.4433,-6.38933 0,-2.97763 0.69804,-5.07384 2.35147,-7.06144 2.47451,-2.97463 9.74445,-23.88406 11.62868,-33.44583 l 1.1073,-5.6191 5.96364,-0.96041 5.96364,-0.96042 0.94026,3.57952 c 7.75381,29.51808 8.38651,32.72425 8.4652,42.89683 l 0.0798,10.31733 -4.13747,3.86383 c -4.82801,4.508697 -10.90844,6.472677 -17.31898,5.594007 -4.71381,-0.6461 -12.04354,-4.790447 -12.04354,-6.809617 0,-0.65382 -1.82168,0.59006 -4.04819,2.76419 -3.70065,3.613587 -4.51057,3.952937 -9.43433,3.952937 -4.62136,0 -5.83125,-0.42598 -8.52081,-3 -1.73067,-1.656317 -3.63748,-4.877127 -4.2573,-7.191047 l -1.12265,-4.19106 -4.74639,4.82185 c -7.91279,8.038587 -18.32774,11.504087 -26.87033,8.940907 z m 77.81144,-9.919597 c 1.79187,-1.66938 2.19235,-3.16475 2.20949,-8.25 0.0265,-7.85137 -6.10547,-35.13603 -7.10145,-31.59863 -0.36973,1.31317 -2.14066,7.25229 -3.9354,13.19805 -2.44182,8.08948 -2.97634,11.09728 -2.12362,11.95 1.5822,1.58219 1.42866,7.2547 -0.23371,8.63434 -0.75529,0.62684 -2.10529,0.85879 -3,0.51546 -2.59093,-0.99424 -1.90874,1.46159 1.29633,4.66666 3.63691,3.63691 9.50175,4.03923 12.88836,0.88412 z M 566.0789,56.65363 c 8.54975,-3.98113 12.80984,-12.03708 10.47913,-19.81631 -1.94597,-6.49508 -9.24302,-6.51162 -13.51215,-0.0306 -2.70656,4.10884 -5.54584,13.80626 -5.54584,18.94152 0,4.05307 1.48297,4.20958 8.57886,0.90543 z"
          style="fill:#ffffff" />
</svg>
